<svg width="139" height="130" viewBox="0 0 139 130" version="1.1" xmlns="http://www.w3.org/2000/svg" xmlns:xlink="http://www.w3.org/1999/xlink"><title>benefit-gym</title><defs><path id="a" d="M0 .219h138.83V129.75H0"/><path id="c" d="M0 .219h138.83V129.75H0"/><path id="e" d="M0 .219h138.83V129.75H0"/></defs><g stroke="none" stroke-width="1" fill="none" fill-rule="evenodd"><g><g><g><g><g><g><g transform="matrix(-1 0 0 1 139 0)"><mask id="b" fill="#fff"><use xlink:href="#a"/></mask><path d="M127.304 18.628L79.797 34.066c-9.231 0-16.715-7.577-16.715-16.924 0-9.346 7.484-16.923 16.715-16.923h29.325c10.042 0 18.182 8.242 18.182 18.409" fill="#612C23" mask="url(#b)"/></g><path d="M51.142 18.724c0-6.91 5.532-12.51 12.355-12.51 6.798 0 12.311 5.562 12.352 12.436-.54 6.189-4.368 11.417-9.707 13.887h-15V18.724z" fill="#51241E"/><path d="M69.762 49.104c2.818 0 5.124-2.334 5.124-5.188v-4.662c0-2.853-2.306-5.188-5.124-5.188-2.819 0-5.124 2.335-5.124 5.188v4.662c0 2.854 2.305 5.188 5.124 5.188M11.696 49.104c2.818 0 5.124-2.334 5.124-5.188v-4.662c0-2.853-2.306-5.188-5.124-5.188-2.818 0-5.124 2.335-5.124 5.188v4.662c0 2.854 2.306 5.188 5.124 5.188" fill="#FF9D8A"/><g transform="matrix(-1 0 0 1 139 0)"><mask id="d" fill="#fff"><use xlink:href="#c"/></mask><path d="M57.673 129.751v-10.076c0-22.69 18.167-41.085 40.578-41.085 22.41 0 40.579 18.394 40.579 41.085v10.076" fill="#8EE000" mask="url(#d)"/></g><path d="M40.729 99.435c9.39 0 17-7.707 17-17.213V70.734c0-9.507-7.61-17.213-17-17.213s-17 7.706-17 17.213v11.488c0 9.506 7.61 17.213 17 17.213" fill="#FF9D8A"/><path d="M11.696 25.498V49.44c0 16.235 12.998 29.396 29.033 29.396 16.034 0 29.033-13.16 29.033-29.396V25.498" fill="#FFB5A1"/><g transform="matrix(-1 0 0 1 139 0)"><mask id="f" fill="#fff"><use xlink:href="#e"/></mask><path d="M120.168 85.106v44.645h18.662v-10.076c0-14.514-7.44-27.26-18.662-34.569" fill="#FFB5A1" mask="url(#f)"/></g><path d="M62.665 85.106v44.645h18.662v-10.076c0-14.514-7.44-27.26-18.662-34.569" fill="#FFB5A1"/><path d="M42.096 110.191c.138 0 .27.037.389.101a.515.515 0 0 0-.15.367c0 .274.203.496.454.496.09 0 .172-.03.243-.078.021.098.033.2.033.308 0 .66-.433 1.193-.97 1.193-.535 0-.968-.534-.968-1.193 0-.66.433-1.194.969-1.194M35.966 110.63a.681.681 0 0 1 .368.094.482.482 0 0 0-.16.348c-.008.253.166.464.389.471a.38.38 0 0 0 .27-.109c.024.09.041.182.048.28.044.62-.293 1.141-.754 1.164-.461.022-.872-.463-.915-1.083-.045-.621.293-1.142.754-1.164M40.846 124.983c-.66-.034-1.133.108-1.164.708-.031.6.773.756 1.2.779.428.023.911-.172.934-.605.022-.433-.374-.85-.97-.882M36.792 123.757c-.63-.033-.643.658-.646.712-.002.053-.067.72 1.035.778.697.037.676-.28.685-.435.007-.156-.276-1.012-1.074-1.055" fill="#7AC70C"/><path d="M23.79 34.361c0 2.08 1.665 3.766 3.72 3.766 2.054 0 3.719-1.686 3.719-3.766s-1.665-3.765-3.72-3.765c-2.054 0-3.719 1.686-3.719 3.765M50.134 34.361c0 2.08 1.665 3.766 3.72 3.766 2.054 0 3.72-1.686 3.72-3.766s-1.666-3.765-3.72-3.765c-2.055 0-3.72 1.686-3.72 3.765" fill="#EB9486"/><path d="M12.637 26.12H68.82c1.083 0 1.961-.888 1.961-1.984v-6.614c0-1.096-.878-1.985-1.96-1.985H12.636c-1.082 0-1.96.889-1.96 1.985v6.614c0 1.096.878 1.985 1.96 1.985" fill="#8EE000"/><path d="M11.696 49.44c0 .233.012.462.017.691h-.017v-.69zM69.762 50.132h-.017c.005-.231.017-.46.017-.69v.69zM26.718 44.907h27.927c2.654 0 4.807 2.612 4.874 5.225h10.225c-.363 15.915-13.21 28.705-29.015 28.705-15.806 0-28.652-12.79-29.015-28.705h10.13c.067-2.613 2.22-5.225 4.874-5.225" fill="#DDA497"/><path d="M10.677 22.692h60.104v-3.725H10.677v3.725z" fill="#7AC70C"/><path d="M39.518 71.51v2.538c0 .678.542 1.227 1.211 1.227s1.21-.55 1.21-1.227V71.51c0-.677-.541-1.226-1.21-1.226-.669 0-1.21.55-1.21 1.226" fill="#C18E89"/><path d="M86.247 121.578c-2.55 0-4.637-2.113-4.637-4.695v-14.928c0-2.582 2.087-4.695 4.637-4.695 2.55 0 4.636 2.113 4.636 4.695v14.928c0 2.582-2.086 4.695-4.636 4.695" fill="#FF9D8A"/><path d="M86.247 122.792c-2.55 0-4.637-2.112-4.637-4.694v-3.363c0-2.582 2.087-4.695 4.637-4.695 2.55 0 4.636 2.113 4.636 4.695v3.363c0 2.582-2.086 4.694-4.636 4.694" fill="#FFB5A1"/><path d="M57.387 114.174h77.414c2.31 0 4.2-1.913 4.2-4.25 0-2.34-1.89-4.253-4.2-4.253H57.387c-2.31 0-4.199 1.913-4.199 4.252 0 2.338 1.89 4.251 4.2 4.251" fill="#FFF"/><path d="M109.976 129.751H86.422v-24.066c0-2.06 1.664-3.745 3.699-3.745h16.156c2.034 0 3.699 1.685 3.699 3.745v24.066z" fill="#FFB5A1"/><path d="M120.71 129.751c2.603 0 4.734-2.157 4.734-4.794V94.892c0-2.636-2.13-4.794-4.735-4.794-2.604 0-4.735 2.158-4.735 4.794v30.065c0 2.637 2.13 4.794 4.735 4.794" fill="#3F3F3F"/><path d="M130.178 123.634c2.604 0 4.734-2.157 4.734-4.793v-17.836c0-2.637-2.13-4.794-4.734-4.794-2.605 0-4.735 2.157-4.735 4.794v17.836c0 2.636 2.13 4.793 4.735 4.793M64.32 123.634c2.605 0 4.736-2.157 4.736-4.793v-17.836c0-2.637-2.13-4.794-4.735-4.794-2.604 0-4.735 2.157-4.735 4.794v17.836c0 2.636 2.13 4.793 4.735 4.793" fill="#3F3F3F"/><path d="M73.79 90.098c-2.605 0-4.735 2.157-4.735 4.794v30.066c0 2.636 2.13 4.793 4.735 4.793 2.604 0 4.734-2.157 4.734-4.793V94.892c0-2.637-2.13-4.794-4.734-4.794" fill="#3F3F3F"/><path d="M90.347 118.746c-2.168 0-3.926-1.78-3.926-3.975v-13.536c0-2.196 1.758-3.975 3.926-3.975s3.926 1.78 3.926 3.975v13.536c0 2.195-1.758 3.975-3.926 3.975M98.199 118.746c-2.168 0-3.926-1.78-3.926-3.975v-13.536c0-2.196 1.758-3.975 3.926-3.975s3.926 1.78 3.926 3.975v13.536c0 2.195-1.758 3.975-3.926 3.975" fill="#FFB5A1"/><path d="M106.05 118.746c-2.168 0-3.926-1.78-3.926-3.975v-13.536c0-2.196 1.758-3.975 3.926-3.975s3.926 1.78 3.926 3.975v13.536c0 2.195-1.758 3.975-3.926 3.975" fill="#FFB5A1"/><path d="M21.926 35.866h37.606c1.729 0 3.129-1.418 3.129-3.168 0-1.75-1.4-3.168-3.129-3.168H21.926c-1.728 0-3.13 1.419-3.13 3.168 0 1.75 1.402 3.168 3.13 3.168" fill="#F4AA9B"/><path d="M23.855 34.361c0 2.08 1.665 3.766 3.719 3.766 2.055 0 3.72-1.686 3.72-3.766s-1.665-3.766-3.72-3.766c-2.054 0-3.72 1.687-3.72 3.766M50.2 34.361c0 2.08 1.664 3.766 3.718 3.766 2.055 0 3.72-1.686 3.72-3.766s-1.665-3.766-3.72-3.766c-2.054 0-3.719 1.687-3.719 3.766" fill="#EB9486"/><path d="M34.864 32.538v11.058c0 .724.58 1.31 1.295 1.31h9.092c.715 0 1.295-.586 1.295-1.31V32.538" fill="#FF9D8A"/><path d="M16.992 32.698h47.427v-3.435H16.992v3.435z" fill="#FFB5A1"/><path d="M40.705 61.387H23.899c0-6.19 5.002-11.255 11.117-11.255h5.689v11.255z" fill="#933634"/><path d="M40.705 56.248v5.139H23.899c0-1.85.455-3.595 1.245-5.139h15.56z" fill="#FFF"/></g></g></g></g></g></g></g></svg>