<svg width="107" height="150" viewBox="0 0 107 150" version="1.1" xmlns="http://www.w3.org/2000/svg"><title>benefit-party</title><g stroke="none" stroke-width="1" fill="none" fill-rule="evenodd"><g><g><g><g><g><g><path d="M77.214 20.451c0 13.894-9.813 25.156-21.918 25.156-12.105 0-21.918-11.262-21.918-25.156 0-13.893 9.813-25.155 21.918-25.155 12.105 0 21.918 11.262 21.918 25.155" fill="#1CB0F7"/><path d="M65.611-5.46c-1.555 3.454-2.439 7.372-2.439 11.527 0 13.894 9.813 25.157 21.918 25.157 12.106 0 21.918-11.263 21.918-25.157 0-4.145-.88-8.053-2.427-11.501-.172-.008-.34-.026-.513-.026H65.61z" fill="#D33131"/><path d="M71.954-4.475a4.749 4.749 0 0 0 9.496 0c0-.338-.038-.667-.105-.985h-9.287a4.792 4.792 0 0 0-.104.985" fill="#EB3939"/><path d="M51.655 9.909a4.749 4.749 0 1 1-9.497 0 4.749 4.749 0 0 1 9.497 0" fill="#22D5FF"/><g><path d="M.789 13.26c0 13.893 9.813 25.157 21.917 25.157 12.105 0 21.919-11.264 21.919-25.157 0-7.436-2.812-14.115-7.28-18.72H8.069C3.601-.854.79 5.825.79 13.26" fill="#FFCE00"/><path d="M20.094 3.744a4.749 4.749 0 1 1-9.498 0 4.749 4.749 0 0 1 9.498 0" fill="#FFE000"/><path d="M16.274 42.638l4.766-8.254c.74-1.283 2.593-1.283 3.333 0l4.766 8.254c.74 1.283-.185 2.887-1.667 2.887h-9.531c-1.482 0-2.407-1.604-1.667-2.887" fill="#FFCE00"/><path d="M48.694 48.188l4.765-8.254c.741-1.284 2.593-1.284 3.334 0l4.765 8.254c.741 1.283-.185 2.887-1.666 2.887H50.36c-1.482 0-2.408-1.604-1.667-2.887" fill="#1CB0F7"/><path d="M78.658 35.088l4.765-8.254c.74-1.283 2.593-1.283 3.334 0l4.765 8.254c.74 1.284-.185 2.887-1.666 2.887h-9.532c-1.481 0-2.407-1.603-1.666-2.887" fill="#D33131"/></g></g><path d="M75.152 99.835l3.085 1.41 1.232 1.644-.264 1.356-.793 1.405-1.101.703-.99.087-1.918-.877-.585-2.674.75-3.187.584.133z" fill="#753629"/><path d="M76.321 65.249H33.575v31.23h42.746v-31.23z" fill="#44211C"/><path d="M28.35 150h52.394c-.608-13.946-12.102-25.067-26.197-25.067-14.096 0-25.59 11.121-26.198 25.067" fill="#773F32"/><path d="M54.547 109.804c-4.188 0-7.615 3.756-7.615 8.346v9.989c0 4.59 3.427 8.346 7.615 8.346 4.187 0 7.615-3.756 7.615-8.346v-9.989c0-4.59-3.428-8.346-7.615-8.346M28.256 101.46c0 2.75 2.381 4.98 5.32 4.98 2.938 0 5.32-2.23 5.32-4.98 0-2.75-2.382-4.981-5.32-4.981-2.939 0-5.32 2.23-5.32 4.98M76.005 106.372c-3.18 0-3.175-4.934 0-4.934 3.18 0 3.174 4.934 0 4.934m.316-9.894c-2.938 0-5.32 2.23-5.32 4.981 0 2.752 2.382 4.981 5.32 4.981 2.939 0 5.32-2.23 5.32-4.98 0-2.751-2.381-4.982-5.32-4.982" fill="#753629"/><path d="M76.005 106.372c-3.18 0-3.175-4.934 0-4.934.113 0 .211.02.316.032V85.63H33.576v20.76c0 11.804 9.569 21.373 21.372 21.373 11.804 0 21.373-9.57 21.373-21.373v-.05c-.105.012-.203.031-.316.031" fill="#773F32"/><path d="M66.151 108.125c0 6.168-5 11.17-11.17 11.17-6.168 0-11.17-5.002-11.17-11.17h22.34z" fill="#571313"/><path d="M44.409 111.726h21.146c.385-1.13.597-2.34.597-3.601h-22.34c0 1.26.212 2.47.597 3.6" fill="#F2F2F2"/><path d="M61.24 117.377a8.178 8.178 0 0 0-6.203-2.844 8.18 8.18 0 0 0-6.243 2.89 11.114 11.114 0 0 0 6.188 1.872c2.319 0 4.472-.708 6.258-1.918" fill="#6D1818"/><path d="M59.186 104.245h-7.943V94.44h7.943v9.804z" fill="#662B23"/><path d="M64.76 130.018c0 5.471-4.596 9.947-10.213 9.947-5.617 0-10.213-4.476-10.213-9.947v-3.214h-6.232V150H70.99v-23.196h-6.23v3.214z" fill="#7AC70C"/><path d="M41.958 96.426a2.662 2.662 0 1 1 5.324 0M62.615 96.426a2.662 2.662 0 1 1 5.324 0" stroke="#562722" stroke-width="2"/><path d="M76.321 106.44h-3.503v-5.195h3.503v5.195zM90.443 117.16c-.06-1.727-1.484-3.125-3.226-3.125a3.246 3.246 0 0 0-3.236 3.238v-6.52a3.247 3.247 0 0 0-3.238-3.236 3.247 3.247 0 0 0-3.237 3.237v15.685l-1.076-1.076a3.333 3.333 0 0 0-4.698 0 3.331 3.331 0 0 0 0 4.699l6.58 6.581c.601.601 1.381.91 2.172.953V150h15.934l.488-23.25v-9.477a3.247 3.247 0 0 0-3.237-3.238c-1.743 0-3.165 1.398-3.226 3.126zM33.266 107.898a3.331 3.331 0 0 0-4.699 0l-1.076 1.075V93.288a3.246 3.246 0 0 0-3.237-3.237 3.247 3.247 0 0 0-3.237 3.237v6.519a3.247 3.247 0 0 0-3.237-3.237 3.24 3.24 0 0 0-3.225 3.125c-.06-1.728-1.484-3.125-3.226-3.125a3.247 3.247 0 0 0-3.238 3.237v50.192h16.421V120.13a3.293 3.293 0 0 0 2.172-.952l6.582-6.582a3.331 3.331 0 0 0 0-4.698" fill="#773F32"/></g></g></g></g></g></g></svg>