<svg width="125" height="125" viewBox="0 0 125 125" version="1.1" xmlns="http://www.w3.org/2000/svg"><title>benefit-education</title><g stroke="none" stroke-width="1" fill="none" fill-rule="evenodd"><g><g><g><g><g><g><g><path d="M117.662 128.985H78.918v-18.472h38.744l4.967 3.36 1.712 5.903-1.526 5.843-5.153 3.366z" fill="#E8E8E8"/><path d="M29.095 121.627v-5.695c0-18.198 14.752-32.95 32.95-32.95s32.95 14.752 32.95 32.95v5.695" fill="#86B20D"/><path d="M62.275 62.308c-5.911 0-10.748 4.711-10.748 10.468v12.527c0 5.757 4.837 10.468 10.748 10.468 5.912 0 10.748-4.71 10.748-10.468V72.776c0-5.757-4.836-10.468-10.748-10.468" fill="#AA5E49"/><path d="M38.05 60.533V15.412c-10.182 0-18.437 8.255-18.437 18.437v45.12c10.183 0 18.437-8.254 18.437-18.436" fill="#4C2A26"/><path d="M26.317 48.74c0 3.704 3.207 6.707 7.164 6.707 3.956 0 7.162-3.003 7.162-6.707 0-3.703-3.206-6.706-7.162-6.706-3.957 0-7.164 3.003-7.164 6.706M98.2 48.74c0 3.704-3.207 6.707-7.164 6.707-3.956 0-7.163-3.003-7.163-6.707 0-3.703 3.207-6.706 7.163-6.706 3.957 0 7.164 3.003 7.164 6.706" fill="#AA5E49"/><g fill="#5B332D"><path d="M62.267 67.03c-15.894 0-28.779-12.885-28.779-28.78v-9.41C33.488 12.944 46.373.06 62.267.06c15.893 0 28.778 12.885 28.778 28.78v9.41c0 15.895-12.885 28.78-28.778 28.78"/></g><path d="M13.196 129.318h20.242V78.073H13.196v51.245z" fill="#86B20D"/><path d="M62.267 75.885c-15.894 0-28.779-12.884-28.779-28.778v-6.406c0-15.894 12.885-28.778 28.779-28.778 15.893 0 28.778 12.884 28.778 28.778v6.406c0 15.894-12.885 28.778-28.778 28.778" fill="#00BDFF"/><path d="M62.267 84.742c-15.894 0-28.779-12.884-28.779-28.779V49.94c0-15.893 12.885-28.778 28.779-28.778 15.893 0 28.778 12.885 28.778 28.778v6.023c0 15.895-12.885 28.779-28.778 28.779" fill="#BF7358"/><path d="M93.75 16.935a8.413 8.413 0 0 1-8.413 8.413 8.413 8.413 0 0 1-8.413-8.413" fill="#1EA4E0"/><path d="M82.07 5.254a8.413 8.413 0 0 0-8.414 8.414 8.413 8.413 0 0 0 8.414 8.413" fill="#1EA4E0"/><path d="M52.258 51.705a3.584 3.584 0 1 1-7.168 0 3.584 3.584 0 0 1 7.168 0M80.073 51.705a3.584 3.584 0 1 1-7.168 0 3.584 3.584 0 0 1 7.168 0" fill="#A85F48"/><path d="M24.21 89.402l25.952-17.346c2.438-1.63 3.1-4.958 1.47-7.396-1.63-2.438-4.958-3.1-7.396-1.47L18.284 80.536" fill="#FFCE00"/><path d="M28.054 74.138L4.483 89.89l5.868 8.78 23.57-15.753" fill="#FFCE00"/><path d="M4.48 89.876L0 99.22l10.347-.566-5.867-8.778z" fill="#E8A897"/><path d="M52.455 64.154c1.63 2.438.968 5.767-1.47 7.396l-6.431 4.299-5.178-9.366 5.683-3.799c2.439-1.63 5.767-.968 7.396 1.47" fill="#F8A"/><path d="M48.866 74.564L41.472 63.5l-5.559 3.716 7.394 11.062 5.559-3.714z" fill="#AFAFAF"/><path d="M48.128 73.46l-2.939-4.397-5.558 3.714 2.939 4.397 5.558-3.714z" fill="#CECECE"/><path d="M66.955 62.394h-8.748V47.03h8.748v15.365z" fill="#BA5E45"/><path d="M14.517 126.193c0-7.94 6.497-14.437 14.437-14.437h20.453c7.94 0 14.437 6.497 14.437 14.437" fill="#FFF"/><path d="M36.865 126.193H11.3v-14.437h25.566v14.437z" fill="#FFF"/><path d="M33.647 88.429h-5.15a4.395 4.395 0 0 1 0-8.79h5.15a4.395 4.395 0 0 1 0 8.79" fill="#BF7358"/><path d="M109.712 126.193c0-7.94-6.497-14.437-14.437-14.437H74.822c-7.94 0-14.437 6.497-14.437 14.437" fill="#FFF"/><path d="M86.402 126.193h25.566v-14.437H86.402v14.437zM65.684 129.903h-7.166a2.738 2.738 0 0 1-2.73-2.73v-1.959a2.738 2.738 0 0 1 2.73-2.73h7.166a2.738 2.738 0 0 1 2.73 2.73v1.958a2.738 2.738 0 0 1-2.73 2.73" fill="#FFF"/><path d="M54.119 50.27h-13.28v-6.643h13.28v6.642z" fill="#BF7358"/><path d="M73.637 76.174h-6.253a1.619 1.619 0 0 1 0-3.238h6.253a1.618 1.618 0 1 1 0 3.238" fill="#A85F48"/><path d="M26.514 86.093a4.286 4.286 0 0 1-4.286-4.286V70.385a4.285 4.285 0 0 1 8.57 0v11.422a4.285 4.285 0 0 1-4.284 4.286" fill="#BF7358"/><path d="M18.543 89.635a4.286 4.286 0 0 1-4.285-4.285V73.928a4.285 4.285 0 0 1 8.57 0V85.35a4.285 4.285 0 0 1-4.285 4.285" fill="#BF7358"/><path d="M10.573 93.178a4.286 4.286 0 0 1-4.286-4.286V77.47a4.285 4.285 0 0 1 8.57 0v11.422a4.285 4.285 0 0 1-4.284 4.286" fill="#BF7358"/></g></g></g></g></g></g></g></g></svg>